<svg id="Layer_1" data-name="Layer 1" xmlns="http://www.w3.org/2000/svg" viewBox="0 0 290.64 512"><title>002-flash</title><path d="M400.39,175.79q-2.56-5.13-7.68-5.12H292L391.86,12.8a7.77,7.77,0,0,0,0-8.53A9,9,0,0,0,384.17,0H247.64A9,9,0,0,0,240,4.27l-128,256a7.77,7.77,0,0,0,0,8.53,10.19,10.19,0,0,0,7.68,4.27h87.9L112,500.91c-1.7,3.41,0,7.68,3.42,10.24.85.85,2.56.85,4.26.85a9.69,9.69,0,0,0,6.83-2.56L399.54,185.17A9.15,9.15,0,0,0,400.39,175.79Zm-250.88,279L228,267.09a8.26,8.26,0,0,0-.85-7.68c-1.7-1.7-4.26-3.41-6.82-3.41h-87L252.76,17.07H368.82L268.12,174.93a7.79,7.79,0,0,0,0,8.54,9,9,0,0,0,7.68,4.26h99Z" transform="translate(-110.68)"/></svg>