<?xml version="1.0" encoding="utf-8"?>
<!-- Generator: Adobe Illustrator 22.0.1, SVG Export Plug-In . SVG Version: 6.00 Build 0)  -->
<svg version="1.1" id="Layer_1" xmlns="http://www.w3.org/2000/svg" xmlns:xlink="http://www.w3.org/1999/xlink" x="0px" y="0px"
	 viewBox="0 0 1119.5 478.4" xml:space="preserve">
<style type="text/css">
	.st0{fill:#000000;}
</style>
<title>logothe</title>
<path class="st0" d="M1119.5,475.3l-300.1-0.1h-9.3V78.9h10.1c96.5,0,193,0,289.5,0c3.3,0,6.5-0.3,9.8-0.4v72.4
	c-3,0.3-5.9,0.8-8.9,0.8c-69.6,0-139.2,0-208.9,0h-9.5v85.4h222v72.7h-222v91.5h227.3V475.3z"/>
<path class="st0" d="M1101.4,0v32.7H820.8V0H1101.4z"/>
<path class="st0" d="M655.3,79.3h82.1v395.2h-81.6v-165H476.8v165.1h-82.2V79.5h81.8v154.1h179V79.3z"/>
<path class="st0" d="M213.3,474.7h-82.1v-321H2.1V79.3h339.8v74H213.3V474.7z"/>
</svg>
